<mxfile host="app.diagrams.net" agent="Mozilla/5.0 (Windows NT 10.0; Win64; x64) AppleWebKit/537.36 (KHTML, like Gecko) Chrome/132.0.0.0 Safari/537.36" version="26.0.10">
  <diagram name="Pagina-1" id="saIdb2JPYMMZvJRfSm82">
    <mxGraphModel dx="1173" dy="1853" grid="0" gridSize="10" guides="1" tooltips="1" connect="1" arrows="1" fold="1" page="1" pageScale="1" pageWidth="827" pageHeight="1169" background="none" math="0" shadow="1" adaptiveColors="auto">
      <root>
        <mxCell id="0" />
        <mxCell id="1" parent="0" />
        <mxCell id="B8raN_QBxa2Ybsrv2BOK-22" value="" style="edgeStyle=orthogonalEdgeStyle;rounded=1;orthogonalLoop=1;jettySize=auto;html=1;labelBackgroundColor=none;fontColor=default;fontFamily=Comic Sans MS;" parent="1" source="B8raN_QBxa2Ybsrv2BOK-20" target="B8raN_QBxa2Ybsrv2BOK-21" edge="1">
          <mxGeometry relative="1" as="geometry" />
        </mxCell>
        <mxCell id="B8raN_QBxa2Ybsrv2BOK-20" value="start" style="ellipse;whiteSpace=wrap;html=1;labelBackgroundColor=none;rounded=1;fontFamily=Comic Sans MS;" parent="1" vertex="1">
          <mxGeometry x="330" y="-20" width="120" height="80" as="geometry" />
        </mxCell>
        <mxCell id="B8raN_QBxa2Ybsrv2BOK-24" value="" style="edgeStyle=orthogonalEdgeStyle;rounded=1;orthogonalLoop=1;jettySize=auto;html=1;labelBackgroundColor=none;fontColor=default;fontFamily=Comic Sans MS;" parent="1" source="B8raN_QBxa2Ybsrv2BOK-21" target="B8raN_QBxa2Ybsrv2BOK-23" edge="1">
          <mxGeometry relative="1" as="geometry" />
        </mxCell>
        <mxCell id="B8raN_QBxa2Ybsrv2BOK-21" value="cont = 0&lt;div&gt;t = 0&lt;span style=&quot;background-color: transparent;&quot;&gt;&amp;nbsp;&lt;/span&gt;&lt;/div&gt;&lt;div&gt;max = -10000&amp;nbsp;&lt;/div&gt;&lt;div&gt;min = 10000&lt;/div&gt;&lt;div&gt;n_max = 0&amp;nbsp;&lt;/div&gt;&lt;div&gt;n_min 0&lt;/div&gt;" style="whiteSpace=wrap;html=1;labelBackgroundColor=none;rounded=1;fontFamily=Comic Sans MS;" parent="1" vertex="1">
          <mxGeometry x="330" y="90" width="120" height="130" as="geometry" />
        </mxCell>
        <mxCell id="B8raN_QBxa2Ybsrv2BOK-26" value="" style="edgeStyle=orthogonalEdgeStyle;rounded=1;orthogonalLoop=1;jettySize=auto;html=1;labelBackgroundColor=none;fontColor=default;fontFamily=Comic Sans MS;" parent="1" source="B8raN_QBxa2Ybsrv2BOK-23" target="B8raN_QBxa2Ybsrv2BOK-25" edge="1">
          <mxGeometry relative="1" as="geometry" />
        </mxCell>
        <mxCell id="KoexLx4D_cvT68o3L-97-73" value="FALSE" style="edgeLabel;html=1;align=center;verticalAlign=middle;resizable=0;points=[];fontSize=12;labelBackgroundColor=none;rounded=1;fontFamily=Comic Sans MS;" vertex="1" connectable="0" parent="B8raN_QBxa2Ybsrv2BOK-26">
          <mxGeometry x="-0.7891" y="1" relative="1" as="geometry">
            <mxPoint as="offset" />
          </mxGeometry>
        </mxCell>
        <mxCell id="KoexLx4D_cvT68o3L-97-71" value="" style="edgeStyle=none;curved=1;rounded=1;orthogonalLoop=1;jettySize=auto;html=1;fontSize=12;startSize=8;endSize=8;labelBackgroundColor=none;fontColor=default;fontFamily=Comic Sans MS;" edge="1" parent="1" source="KoexLx4D_cvT68o3L-97-75" target="KoexLx4D_cvT68o3L-97-70">
          <mxGeometry relative="1" as="geometry" />
        </mxCell>
        <mxCell id="KoexLx4D_cvT68o3L-97-132" value="" style="edgeStyle=none;curved=1;rounded=1;orthogonalLoop=1;jettySize=auto;html=1;fontSize=12;startSize=8;endSize=8;labelBackgroundColor=none;fontColor=default;fontFamily=Comic Sans MS;" edge="1" parent="1" source="B8raN_QBxa2Ybsrv2BOK-23" target="KoexLx4D_cvT68o3L-97-131">
          <mxGeometry relative="1" as="geometry" />
        </mxCell>
        <mxCell id="B8raN_QBxa2Ybsrv2BOK-23" value="cont &amp;gt;= 7" style="rhombus;whiteSpace=wrap;html=1;labelBackgroundColor=none;rounded=1;fontFamily=Comic Sans MS;" parent="1" vertex="1">
          <mxGeometry x="350" y="240" width="80" height="80" as="geometry" />
        </mxCell>
        <mxCell id="B8raN_QBxa2Ybsrv2BOK-28" value="" style="edgeStyle=orthogonalEdgeStyle;rounded=1;orthogonalLoop=1;jettySize=auto;html=1;labelBackgroundColor=none;fontColor=default;fontFamily=Comic Sans MS;" parent="1" source="B8raN_QBxa2Ybsrv2BOK-25" target="B8raN_QBxa2Ybsrv2BOK-27" edge="1">
          <mxGeometry relative="1" as="geometry" />
        </mxCell>
        <mxCell id="B8raN_QBxa2Ybsrv2BOK-25" value="write t" style="shape=parallelogram;perimeter=parallelogramPerimeter;whiteSpace=wrap;html=1;fixedSize=1;labelBackgroundColor=none;rounded=1;fontFamily=Comic Sans MS;" parent="1" vertex="1">
          <mxGeometry x="330" y="350" width="120" height="60" as="geometry" />
        </mxCell>
        <mxCell id="B8raN_QBxa2Ybsrv2BOK-30" value="" style="edgeStyle=orthogonalEdgeStyle;rounded=1;orthogonalLoop=1;jettySize=auto;html=1;labelBackgroundColor=none;fontColor=default;fontFamily=Comic Sans MS;" parent="1" source="B8raN_QBxa2Ybsrv2BOK-27" target="B8raN_QBxa2Ybsrv2BOK-29" edge="1">
          <mxGeometry relative="1" as="geometry" />
        </mxCell>
        <mxCell id="B8raN_QBxa2Ybsrv2BOK-27" value="sum = sum + t" style="whiteSpace=wrap;html=1;labelBackgroundColor=none;rounded=1;fontFamily=Comic Sans MS;" parent="1" vertex="1">
          <mxGeometry x="330" y="440" width="120" height="60" as="geometry" />
        </mxCell>
        <mxCell id="B8raN_QBxa2Ybsrv2BOK-32" value="" style="edgeStyle=orthogonalEdgeStyle;rounded=1;orthogonalLoop=1;jettySize=auto;html=1;labelBackgroundColor=none;fontColor=default;fontFamily=Comic Sans MS;" parent="1" source="B8raN_QBxa2Ybsrv2BOK-29" target="B8raN_QBxa2Ybsrv2BOK-31" edge="1">
          <mxGeometry relative="1" as="geometry" />
        </mxCell>
        <mxCell id="B8raN_QBxa2Ybsrv2BOK-33" value="true" style="edgeLabel;html=1;align=center;verticalAlign=middle;resizable=0;points=[];labelBackgroundColor=none;rounded=1;fontFamily=Comic Sans MS;" parent="B8raN_QBxa2Ybsrv2BOK-32" vertex="1" connectable="0">
          <mxGeometry x="-0.4571" y="3" relative="1" as="geometry">
            <mxPoint as="offset" />
          </mxGeometry>
        </mxCell>
        <mxCell id="KoexLx4D_cvT68o3L-97-114" value="" style="edgeStyle=none;curved=1;rounded=1;orthogonalLoop=1;jettySize=auto;html=1;fontSize=12;startSize=8;endSize=8;labelBackgroundColor=none;fontColor=default;fontFamily=Comic Sans MS;" edge="1" parent="1" source="B8raN_QBxa2Ybsrv2BOK-29" target="KoexLx4D_cvT68o3L-97-113">
          <mxGeometry relative="1" as="geometry" />
        </mxCell>
        <mxCell id="B8raN_QBxa2Ybsrv2BOK-29" value="t &amp;gt;=10 and&lt;div&gt;t &amp;lt;= 30&lt;/div&gt;" style="rhombus;whiteSpace=wrap;html=1;labelBackgroundColor=none;rounded=1;fontFamily=Comic Sans MS;" parent="1" vertex="1">
          <mxGeometry x="350" y="540" width="80" height="80" as="geometry" />
        </mxCell>
        <mxCell id="KoexLx4D_cvT68o3L-97-48" value="" style="edgeStyle=none;curved=1;rounded=1;orthogonalLoop=1;jettySize=auto;html=1;fontSize=12;startSize=8;endSize=8;labelBackgroundColor=none;fontColor=default;fontFamily=Comic Sans MS;" edge="1" parent="1" source="B8raN_QBxa2Ybsrv2BOK-31" target="KoexLx4D_cvT68o3L-97-47">
          <mxGeometry relative="1" as="geometry" />
        </mxCell>
        <mxCell id="B8raN_QBxa2Ybsrv2BOK-31" value="write temperatura nella norma" style="shape=parallelogram;perimeter=parallelogramPerimeter;whiteSpace=wrap;html=1;fixedSize=1;labelBackgroundColor=none;rounded=1;fontFamily=Comic Sans MS;" parent="1" vertex="1">
          <mxGeometry x="490" y="650" width="120" height="60" as="geometry" />
        </mxCell>
        <mxCell id="B8raN_QBxa2Ybsrv2BOK-38" value="" style="edgeStyle=orthogonalEdgeStyle;rounded=1;orthogonalLoop=1;jettySize=auto;html=1;labelBackgroundColor=none;fontColor=default;fontFamily=Comic Sans MS;" parent="1" source="B8raN_QBxa2Ybsrv2BOK-34" target="B8raN_QBxa2Ybsrv2BOK-37" edge="1">
          <mxGeometry relative="1" as="geometry">
            <Array as="points">
              <mxPoint x="340" y="650" />
            </Array>
          </mxGeometry>
        </mxCell>
        <mxCell id="KoexLx4D_cvT68o3L-97-123" value="" style="edgeStyle=none;curved=1;rounded=1;orthogonalLoop=1;jettySize=auto;html=1;fontSize=12;startSize=8;endSize=8;labelBackgroundColor=none;fontColor=default;fontFamily=Comic Sans MS;" edge="1" parent="1" source="B8raN_QBxa2Ybsrv2BOK-34" target="KoexLx4D_cvT68o3L-97-122">
          <mxGeometry relative="1" as="geometry" />
        </mxCell>
        <mxCell id="B8raN_QBxa2Ybsrv2BOK-34" value="t &amp;gt;35 or&amp;nbsp;&lt;div&gt;t&amp;lt;5&lt;/div&gt;" style="rhombus;whiteSpace=wrap;html=1;labelBackgroundColor=none;rounded=1;fontFamily=Comic Sans MS;" parent="1" vertex="1">
          <mxGeometry x="190" y="610" width="80" height="80" as="geometry" />
        </mxCell>
        <mxCell id="KoexLx4D_cvT68o3L-97-44" value="" style="edgeStyle=none;curved=1;rounded=1;orthogonalLoop=1;jettySize=auto;html=1;fontSize=12;startSize=8;endSize=8;labelBackgroundColor=none;fontColor=default;fontFamily=Comic Sans MS;" edge="1" parent="1" source="B8raN_QBxa2Ybsrv2BOK-37">
          <mxGeometry relative="1" as="geometry">
            <mxPoint x="340" y="760" as="targetPoint" />
          </mxGeometry>
        </mxCell>
        <mxCell id="B8raN_QBxa2Ybsrv2BOK-37" value="write allerta temperatura" style="shape=parallelogram;perimeter=parallelogramPerimeter;whiteSpace=wrap;html=1;fixedSize=1;labelBackgroundColor=none;rounded=1;fontFamily=Comic Sans MS;" parent="1" vertex="1">
          <mxGeometry x="280" y="670" width="120" height="60" as="geometry" />
        </mxCell>
        <mxCell id="KoexLx4D_cvT68o3L-97-4" value="" style="edgeStyle=none;curved=1;rounded=1;orthogonalLoop=1;jettySize=auto;html=1;fontSize=12;startSize=8;endSize=8;labelBackgroundColor=none;fontColor=default;fontFamily=Comic Sans MS;" edge="1" parent="1" source="KoexLx4D_cvT68o3L-97-77">
          <mxGeometry relative="1" as="geometry">
            <mxPoint x="530" y="890" as="targetPoint" />
          </mxGeometry>
        </mxCell>
        <mxCell id="KoexLx4D_cvT68o3L-97-87" value="" style="edgeStyle=none;curved=1;rounded=1;orthogonalLoop=1;jettySize=auto;html=1;fontSize=12;startSize=8;endSize=8;labelBackgroundColor=none;fontColor=default;fontFamily=Comic Sans MS;" edge="1" parent="1" source="KoexLx4D_cvT68o3L-97-1" target="KoexLx4D_cvT68o3L-97-86">
          <mxGeometry relative="1" as="geometry" />
        </mxCell>
        <mxCell id="KoexLx4D_cvT68o3L-97-1" value="t &amp;gt; max&amp;nbsp;" style="rhombus;whiteSpace=wrap;html=1;rounded=1;labelBackgroundColor=none;fontFamily=Comic Sans MS;" vertex="1" parent="1">
          <mxGeometry x="350" y="850" width="80" height="80" as="geometry" />
        </mxCell>
        <mxCell id="KoexLx4D_cvT68o3L-97-6" value="" style="edgeStyle=none;curved=1;rounded=1;orthogonalLoop=1;jettySize=auto;html=1;fontSize=12;startSize=8;endSize=8;labelBackgroundColor=none;fontColor=default;fontFamily=Comic Sans MS;" edge="1" parent="1" source="KoexLx4D_cvT68o3L-97-3" target="KoexLx4D_cvT68o3L-97-5">
          <mxGeometry relative="1" as="geometry" />
        </mxCell>
        <mxCell id="KoexLx4D_cvT68o3L-97-3" value="max = t" style="whiteSpace=wrap;html=1;rounded=1;labelBackgroundColor=none;fontFamily=Comic Sans MS;" vertex="1" parent="1">
          <mxGeometry x="470" y="970" width="120" height="60" as="geometry" />
        </mxCell>
        <mxCell id="KoexLx4D_cvT68o3L-97-5" value="n_max = cont" style="whiteSpace=wrap;html=1;rounded=1;labelBackgroundColor=none;fontFamily=Comic Sans MS;" vertex="1" parent="1">
          <mxGeometry x="470" y="1120" width="120" height="60" as="geometry" />
        </mxCell>
        <mxCell id="KoexLx4D_cvT68o3L-97-92" value="" style="edgeStyle=none;curved=1;rounded=1;orthogonalLoop=1;jettySize=auto;html=1;fontSize=12;startSize=8;endSize=8;labelBackgroundColor=none;fontColor=default;fontFamily=Comic Sans MS;" edge="1" parent="1" source="KoexLx4D_cvT68o3L-97-7" target="KoexLx4D_cvT68o3L-97-91">
          <mxGeometry relative="1" as="geometry" />
        </mxCell>
        <mxCell id="KoexLx4D_cvT68o3L-97-104" value="" style="edgeStyle=none;curved=1;rounded=1;orthogonalLoop=1;jettySize=auto;html=1;fontSize=12;startSize=8;endSize=8;labelBackgroundColor=none;fontColor=default;fontFamily=Comic Sans MS;" edge="1" parent="1" source="KoexLx4D_cvT68o3L-97-7" target="KoexLx4D_cvT68o3L-97-103">
          <mxGeometry relative="1" as="geometry" />
        </mxCell>
        <mxCell id="KoexLx4D_cvT68o3L-97-7" value="t &amp;lt; min&amp;nbsp;" style="rhombus;whiteSpace=wrap;html=1;rounded=1;labelBackgroundColor=none;fontFamily=Comic Sans MS;" vertex="1" parent="1">
          <mxGeometry x="150" y="920" width="80" height="80" as="geometry" />
        </mxCell>
        <mxCell id="KoexLx4D_cvT68o3L-97-23" value="" style="edgeStyle=none;curved=1;rounded=1;orthogonalLoop=1;jettySize=auto;html=1;fontSize=12;startSize=8;endSize=8;labelBackgroundColor=none;fontColor=default;fontFamily=Comic Sans MS;" edge="1" parent="1" source="KoexLx4D_cvT68o3L-97-20" target="KoexLx4D_cvT68o3L-97-22">
          <mxGeometry relative="1" as="geometry" />
        </mxCell>
        <mxCell id="KoexLx4D_cvT68o3L-97-20" value="min = t" style="whiteSpace=wrap;html=1;rounded=1;labelBackgroundColor=none;fontFamily=Comic Sans MS;" vertex="1" parent="1">
          <mxGeometry x="250" y="1000" width="120" height="60" as="geometry" />
        </mxCell>
        <mxCell id="KoexLx4D_cvT68o3L-97-22" value="n_min = cont" style="whiteSpace=wrap;html=1;rounded=1;labelBackgroundColor=none;fontFamily=Comic Sans MS;" vertex="1" parent="1">
          <mxGeometry x="250" y="1090" width="120" height="60" as="geometry" />
        </mxCell>
        <mxCell id="KoexLx4D_cvT68o3L-97-52" value="" style="edgeStyle=none;curved=1;rounded=1;orthogonalLoop=1;jettySize=auto;html=1;fontSize=12;startSize=8;endSize=8;labelBackgroundColor=none;fontColor=default;fontFamily=Comic Sans MS;" edge="1" parent="1" source="KoexLx4D_cvT68o3L-97-43" target="KoexLx4D_cvT68o3L-97-51">
          <mxGeometry relative="1" as="geometry" />
        </mxCell>
        <mxCell id="KoexLx4D_cvT68o3L-97-43" value="" style="shape=waypoint;size=6;pointerEvents=1;points=[];resizable=0;rotatable=0;perimeter=centerPerimeter;snapToPoint=1;labelBackgroundColor=none;rounded=1;fontFamily=Comic Sans MS;" vertex="1" parent="1">
          <mxGeometry x="220" y="800" width="20" height="20" as="geometry" />
        </mxCell>
        <mxCell id="KoexLx4D_cvT68o3L-97-50" value="" style="edgeStyle=none;curved=1;rounded=1;orthogonalLoop=1;jettySize=auto;html=1;fontSize=12;startSize=8;endSize=8;labelBackgroundColor=none;fontColor=default;fontFamily=Comic Sans MS;" edge="1" parent="1" source="KoexLx4D_cvT68o3L-97-47" target="KoexLx4D_cvT68o3L-97-49">
          <mxGeometry relative="1" as="geometry" />
        </mxCell>
        <mxCell id="KoexLx4D_cvT68o3L-97-47" value="" style="shape=waypoint;size=6;pointerEvents=1;points=[];resizable=0;rotatable=0;perimeter=centerPerimeter;snapToPoint=1;labelBackgroundColor=none;rounded=1;fontFamily=Comic Sans MS;" vertex="1" parent="1">
          <mxGeometry x="540" y="800" width="20" height="20" as="geometry" />
        </mxCell>
        <mxCell id="KoexLx4D_cvT68o3L-97-49" value="" style="shape=waypoint;size=6;pointerEvents=1;points=[];resizable=0;rotatable=0;perimeter=centerPerimeter;snapToPoint=1;labelBackgroundColor=none;rounded=1;fontFamily=Comic Sans MS;" vertex="1" parent="1">
          <mxGeometry x="380" y="800" width="20" height="20" as="geometry" />
        </mxCell>
        <mxCell id="KoexLx4D_cvT68o3L-97-53" value="" style="edgeStyle=none;curved=1;rounded=1;orthogonalLoop=1;jettySize=auto;html=1;fontSize=12;startSize=8;endSize=8;labelBackgroundColor=none;fontColor=default;fontFamily=Comic Sans MS;" edge="1" parent="1" source="KoexLx4D_cvT68o3L-97-51" target="KoexLx4D_cvT68o3L-97-1">
          <mxGeometry relative="1" as="geometry" />
        </mxCell>
        <mxCell id="KoexLx4D_cvT68o3L-97-51" value="" style="shape=waypoint;size=6;pointerEvents=1;points=[];resizable=0;rotatable=0;perimeter=centerPerimeter;snapToPoint=1;labelBackgroundColor=none;rounded=1;fontFamily=Comic Sans MS;" vertex="1" parent="1">
          <mxGeometry x="380" y="800" width="20" height="20" as="geometry" />
        </mxCell>
        <mxCell id="KoexLx4D_cvT68o3L-97-57" value="" style="edgeStyle=none;curved=1;rounded=1;orthogonalLoop=1;jettySize=auto;html=1;fontSize=12;startSize=8;endSize=8;labelBackgroundColor=none;fontColor=default;fontFamily=Comic Sans MS;" edge="1" parent="1" source="KoexLx4D_cvT68o3L-97-54" target="KoexLx4D_cvT68o3L-97-56">
          <mxGeometry relative="1" as="geometry" />
        </mxCell>
        <mxCell id="KoexLx4D_cvT68o3L-97-54" value="" style="shape=waypoint;size=6;pointerEvents=1;points=[];resizable=0;rotatable=0;perimeter=centerPerimeter;snapToPoint=1;rounded=1;labelBackgroundColor=none;fontFamily=Comic Sans MS;" vertex="1" parent="1">
          <mxGeometry x="180" y="1230" width="20" height="20" as="geometry" />
        </mxCell>
        <mxCell id="KoexLx4D_cvT68o3L-97-62" value="" style="edgeStyle=none;curved=1;rounded=1;orthogonalLoop=1;jettySize=auto;html=1;fontSize=12;startSize=8;endSize=8;labelBackgroundColor=none;fontColor=default;fontFamily=Comic Sans MS;" edge="1" parent="1" source="KoexLx4D_cvT68o3L-97-56" target="KoexLx4D_cvT68o3L-97-61">
          <mxGeometry relative="1" as="geometry" />
        </mxCell>
        <mxCell id="KoexLx4D_cvT68o3L-97-56" value="" style="shape=waypoint;size=6;pointerEvents=1;points=[];resizable=0;rotatable=0;perimeter=centerPerimeter;snapToPoint=1;rounded=1;labelBackgroundColor=none;fontFamily=Comic Sans MS;" vertex="1" parent="1">
          <mxGeometry x="240" y="1231" width="20" height="20" as="geometry" />
        </mxCell>
        <mxCell id="KoexLx4D_cvT68o3L-97-60" value="" style="edgeStyle=none;curved=1;rounded=1;orthogonalLoop=1;jettySize=auto;html=1;fontSize=12;startSize=8;endSize=8;labelBackgroundColor=none;fontColor=default;fontFamily=Comic Sans MS;" edge="1" parent="1" target="KoexLx4D_cvT68o3L-97-56">
          <mxGeometry relative="1" as="geometry">
            <mxPoint x="530" y="1240" as="sourcePoint" />
          </mxGeometry>
        </mxCell>
        <mxCell id="KoexLx4D_cvT68o3L-97-65" value="" style="edgeStyle=none;curved=1;rounded=1;orthogonalLoop=1;jettySize=auto;html=1;fontSize=12;startSize=8;endSize=8;labelBackgroundColor=none;fontColor=default;fontFamily=Comic Sans MS;" edge="1" parent="1" source="KoexLx4D_cvT68o3L-97-61" target="KoexLx4D_cvT68o3L-97-64">
          <mxGeometry relative="1" as="geometry" />
        </mxCell>
        <mxCell id="KoexLx4D_cvT68o3L-97-61" value="cont += 1" style="whiteSpace=wrap;html=1;pointerEvents=1;resizable=0;rounded=1;labelBackgroundColor=none;fontFamily=Comic Sans MS;" vertex="1" parent="1">
          <mxGeometry x="190" y="1300" width="120" height="60" as="geometry" />
        </mxCell>
        <mxCell id="KoexLx4D_cvT68o3L-97-67" value="" style="edgeStyle=none;curved=1;rounded=1;orthogonalLoop=1;jettySize=auto;html=1;fontSize=12;startSize=8;endSize=8;labelBackgroundColor=none;fontColor=default;fontFamily=Comic Sans MS;" edge="1" parent="1" source="KoexLx4D_cvT68o3L-97-64" target="KoexLx4D_cvT68o3L-97-66">
          <mxGeometry relative="1" as="geometry" />
        </mxCell>
        <mxCell id="KoexLx4D_cvT68o3L-97-64" value="" style="shape=waypoint;size=6;pointerEvents=1;points=[];resizable=0;rotatable=0;perimeter=centerPerimeter;snapToPoint=1;rounded=1;labelBackgroundColor=none;fontFamily=Comic Sans MS;" vertex="1" parent="1">
          <mxGeometry x="670" y="1320" width="20" height="20" as="geometry" />
        </mxCell>
        <mxCell id="KoexLx4D_cvT68o3L-97-69" value="" style="edgeStyle=none;curved=1;rounded=1;orthogonalLoop=1;jettySize=auto;html=1;fontSize=12;startSize=8;endSize=8;labelBackgroundColor=none;fontColor=default;fontFamily=Comic Sans MS;" edge="1" parent="1" source="KoexLx4D_cvT68o3L-97-66" target="KoexLx4D_cvT68o3L-97-68">
          <mxGeometry relative="1" as="geometry" />
        </mxCell>
        <mxCell id="KoexLx4D_cvT68o3L-97-66" value="" style="shape=waypoint;size=6;pointerEvents=1;points=[];resizable=0;rotatable=0;perimeter=centerPerimeter;snapToPoint=1;rounded=1;labelBackgroundColor=none;fontFamily=Comic Sans MS;" vertex="1" parent="1">
          <mxGeometry x="670" y="270" width="20" height="20" as="geometry" />
        </mxCell>
        <mxCell id="KoexLx4D_cvT68o3L-97-68" value="" style="shape=waypoint;size=6;pointerEvents=1;points=[];resizable=0;rotatable=0;perimeter=centerPerimeter;snapToPoint=1;rounded=1;labelBackgroundColor=none;fontFamily=Comic Sans MS;" vertex="1" parent="1">
          <mxGeometry x="420" y="270" width="20" height="20" as="geometry" />
        </mxCell>
        <mxCell id="KoexLx4D_cvT68o3L-97-70" value="end" style="ellipse;whiteSpace=wrap;html=1;labelBackgroundColor=none;rounded=1;fontFamily=Comic Sans MS;" vertex="1" parent="1">
          <mxGeometry x="100" y="400" width="80" height="80" as="geometry" />
        </mxCell>
        <mxCell id="KoexLx4D_cvT68o3L-97-78" value="" style="edgeStyle=none;curved=1;rounded=1;orthogonalLoop=1;jettySize=auto;html=1;fontSize=12;startSize=8;endSize=8;labelBackgroundColor=none;fontColor=default;fontFamily=Comic Sans MS;" edge="1" parent="1" source="KoexLx4D_cvT68o3L-97-1" target="KoexLx4D_cvT68o3L-97-77">
          <mxGeometry relative="1" as="geometry">
            <mxPoint x="430" y="890" as="sourcePoint" />
            <mxPoint x="530" y="890" as="targetPoint" />
          </mxGeometry>
        </mxCell>
        <mxCell id="KoexLx4D_cvT68o3L-97-79" value="TRUE" style="edgeLabel;html=1;align=center;verticalAlign=middle;resizable=0;points=[];fontSize=12;labelBackgroundColor=none;rounded=1;fontFamily=Comic Sans MS;" vertex="1" connectable="0" parent="KoexLx4D_cvT68o3L-97-78">
          <mxGeometry x="-0.3579" relative="1" as="geometry">
            <mxPoint as="offset" />
          </mxGeometry>
        </mxCell>
        <mxCell id="KoexLx4D_cvT68o3L-97-77" value="" style="shape=waypoint;size=6;pointerEvents=1;points=[];fillColor=none;resizable=0;rotatable=0;perimeter=centerPerimeter;snapToPoint=1;labelBackgroundColor=none;rounded=1;fontFamily=Comic Sans MS;" vertex="1" parent="1">
          <mxGeometry x="520" y="880" width="20" height="20" as="geometry" />
        </mxCell>
        <mxCell id="KoexLx4D_cvT68o3L-97-81" style="edgeStyle=none;curved=1;rounded=1;orthogonalLoop=1;jettySize=auto;html=1;entryX=0.5;entryY=0;entryDx=0;entryDy=0;fontSize=12;startSize=8;endSize=8;labelBackgroundColor=none;fontColor=default;fontFamily=Comic Sans MS;" edge="1" parent="1" source="KoexLx4D_cvT68o3L-97-77" target="KoexLx4D_cvT68o3L-97-3">
          <mxGeometry relative="1" as="geometry" />
        </mxCell>
        <mxCell id="KoexLx4D_cvT68o3L-97-89" style="edgeStyle=none;curved=1;rounded=1;orthogonalLoop=1;jettySize=auto;html=1;entryX=0.5;entryY=0;entryDx=0;entryDy=0;fontSize=12;startSize=8;endSize=8;labelBackgroundColor=none;fontColor=default;fontFamily=Comic Sans MS;" edge="1" parent="1" source="KoexLx4D_cvT68o3L-97-86" target="KoexLx4D_cvT68o3L-97-7">
          <mxGeometry relative="1" as="geometry" />
        </mxCell>
        <mxCell id="KoexLx4D_cvT68o3L-97-86" value="" style="shape=waypoint;size=6;pointerEvents=1;points=[];resizable=0;rotatable=0;perimeter=centerPerimeter;snapToPoint=1;rounded=1;labelBackgroundColor=none;fontFamily=Comic Sans MS;" vertex="1" parent="1">
          <mxGeometry x="180" y="880" width="20" height="20" as="geometry" />
        </mxCell>
        <mxCell id="KoexLx4D_cvT68o3L-97-94" style="edgeStyle=none;curved=1;rounded=1;orthogonalLoop=1;jettySize=auto;html=1;entryX=0.5;entryY=0;entryDx=0;entryDy=0;fontSize=12;startSize=8;endSize=8;labelBackgroundColor=none;fontColor=default;fontFamily=Comic Sans MS;" edge="1" parent="1" source="KoexLx4D_cvT68o3L-97-91" target="KoexLx4D_cvT68o3L-97-20">
          <mxGeometry relative="1" as="geometry" />
        </mxCell>
        <mxCell id="KoexLx4D_cvT68o3L-97-91" value="" style="shape=waypoint;size=6;pointerEvents=1;points=[];fillColor=none;resizable=0;rotatable=0;perimeter=centerPerimeter;snapToPoint=1;labelBackgroundColor=none;rounded=1;fontFamily=Comic Sans MS;" vertex="1" parent="1">
          <mxGeometry x="300" y="950" width="20" height="20" as="geometry" />
        </mxCell>
        <mxCell id="KoexLx4D_cvT68o3L-97-100" value="" style="edgeStyle=none;curved=1;rounded=1;orthogonalLoop=1;jettySize=auto;html=1;fontSize=12;startSize=8;endSize=8;labelBackgroundColor=none;fontColor=default;fontFamily=Comic Sans MS;" edge="1" parent="1" source="KoexLx4D_cvT68o3L-97-96" target="KoexLx4D_cvT68o3L-97-99">
          <mxGeometry relative="1" as="geometry" />
        </mxCell>
        <mxCell id="KoexLx4D_cvT68o3L-97-96" value="" style="shape=waypoint;size=6;pointerEvents=1;points=[];fillColor=none;resizable=0;rotatable=0;perimeter=centerPerimeter;snapToPoint=1;labelBackgroundColor=none;rounded=1;fontFamily=Comic Sans MS;" vertex="1" parent="1">
          <mxGeometry x="300" y="1170" width="20" height="20" as="geometry" />
        </mxCell>
        <mxCell id="KoexLx4D_cvT68o3L-97-97" style="edgeStyle=none;curved=1;rounded=1;orthogonalLoop=1;jettySize=auto;html=1;exitX=0.5;exitY=1;exitDx=0;exitDy=0;entryX=0.487;entryY=0.168;entryDx=0;entryDy=0;entryPerimeter=0;fontSize=12;startSize=8;endSize=8;labelBackgroundColor=none;fontColor=default;fontFamily=Comic Sans MS;" edge="1" parent="1" source="KoexLx4D_cvT68o3L-97-22" target="KoexLx4D_cvT68o3L-97-96">
          <mxGeometry relative="1" as="geometry" />
        </mxCell>
        <mxCell id="KoexLx4D_cvT68o3L-97-108" value="" style="edgeStyle=none;curved=1;rounded=1;orthogonalLoop=1;jettySize=auto;html=1;fontSize=12;startSize=8;endSize=8;labelBackgroundColor=none;fontColor=default;fontFamily=Comic Sans MS;" edge="1" parent="1" source="KoexLx4D_cvT68o3L-97-99">
          <mxGeometry relative="1" as="geometry">
            <mxPoint x="190" y="1240" as="targetPoint" />
            <Array as="points">
              <mxPoint x="190" y="1240" />
            </Array>
          </mxGeometry>
        </mxCell>
        <mxCell id="KoexLx4D_cvT68o3L-97-99" value="" style="shape=waypoint;size=6;pointerEvents=1;points=[];fillColor=none;resizable=0;rotatable=0;perimeter=centerPerimeter;snapToPoint=1;labelBackgroundColor=none;rounded=1;fontFamily=Comic Sans MS;" vertex="1" parent="1">
          <mxGeometry x="180" y="1170" width="20" height="20" as="geometry" />
        </mxCell>
        <mxCell id="KoexLx4D_cvT68o3L-97-106" value="" style="edgeStyle=none;curved=1;rounded=1;orthogonalLoop=1;jettySize=auto;html=1;fontSize=12;startSize=8;endSize=8;labelBackgroundColor=none;fontColor=default;fontFamily=Comic Sans MS;" edge="1" parent="1" source="KoexLx4D_cvT68o3L-97-103" target="KoexLx4D_cvT68o3L-97-105">
          <mxGeometry relative="1" as="geometry" />
        </mxCell>
        <mxCell id="KoexLx4D_cvT68o3L-97-103" value="" style="shape=waypoint;size=6;pointerEvents=1;points=[];resizable=0;rotatable=0;perimeter=centerPerimeter;snapToPoint=1;rounded=1;labelBackgroundColor=none;" vertex="1" parent="1">
          <mxGeometry x="60" y="950" width="20" height="20" as="geometry" />
        </mxCell>
        <mxCell id="KoexLx4D_cvT68o3L-97-107" value="" style="edgeStyle=none;curved=1;rounded=1;orthogonalLoop=1;jettySize=auto;html=1;fontSize=12;startSize=8;endSize=8;labelBackgroundColor=none;fontColor=default;fontFamily=Comic Sans MS;" edge="1" parent="1" source="KoexLx4D_cvT68o3L-97-105" target="KoexLx4D_cvT68o3L-97-99">
          <mxGeometry relative="1" as="geometry" />
        </mxCell>
        <mxCell id="KoexLx4D_cvT68o3L-97-105" value="" style="shape=waypoint;size=6;pointerEvents=1;points=[];resizable=0;rotatable=0;perimeter=centerPerimeter;snapToPoint=1;rounded=1;labelBackgroundColor=none;" vertex="1" parent="1">
          <mxGeometry x="60" y="1170" width="20" height="20" as="geometry" />
        </mxCell>
        <mxCell id="KoexLx4D_cvT68o3L-97-109" value="" style="edgeStyle=none;curved=1;rounded=1;orthogonalLoop=1;jettySize=auto;html=1;fontSize=12;startSize=8;endSize=8;entryX=0.539;entryY=0.066;entryDx=0;entryDy=0;entryPerimeter=0;labelBackgroundColor=none;fontColor=default;fontFamily=Comic Sans MS;" edge="1" parent="1" source="KoexLx4D_cvT68o3L-97-5" target="KoexLx4D_cvT68o3L-97-110">
          <mxGeometry relative="1" as="geometry">
            <mxPoint x="530" y="1107" as="sourcePoint" />
            <mxPoint x="530" y="1209" as="targetPoint" />
            <Array as="points" />
          </mxGeometry>
        </mxCell>
        <mxCell id="KoexLx4D_cvT68o3L-97-110" value="" style="shape=waypoint;size=6;pointerEvents=1;points=[];fillColor=none;resizable=0;rotatable=0;perimeter=centerPerimeter;snapToPoint=1;labelBackgroundColor=none;rounded=1;fontFamily=Comic Sans MS;" vertex="1" parent="1">
          <mxGeometry x="520" y="1231" width="20" height="20" as="geometry" />
        </mxCell>
        <mxCell id="KoexLx4D_cvT68o3L-97-111" style="edgeStyle=none;curved=1;rounded=1;orthogonalLoop=1;jettySize=auto;html=1;exitX=0.5;exitY=0;exitDx=0;exitDy=0;fontSize=12;startSize=8;endSize=8;labelBackgroundColor=none;fontColor=default;fontFamily=Comic Sans MS;" edge="1" parent="1" source="KoexLx4D_cvT68o3L-97-5" target="KoexLx4D_cvT68o3L-97-5">
          <mxGeometry relative="1" as="geometry" />
        </mxCell>
        <mxCell id="KoexLx4D_cvT68o3L-97-113" value="" style="shape=waypoint;size=6;pointerEvents=1;points=[];fillColor=none;resizable=0;rotatable=0;perimeter=centerPerimeter;snapToPoint=1;labelBackgroundColor=none;rounded=1;fontFamily=Comic Sans MS;" vertex="1" parent="1">
          <mxGeometry x="220" y="570" width="20" height="20" as="geometry" />
        </mxCell>
        <mxCell id="KoexLx4D_cvT68o3L-97-117" style="edgeStyle=none;curved=1;rounded=1;orthogonalLoop=1;jettySize=auto;html=1;fontSize=12;startSize=8;endSize=8;labelBackgroundColor=none;fontColor=default;fontFamily=Comic Sans MS;" edge="1" parent="1" source="KoexLx4D_cvT68o3L-97-113">
          <mxGeometry relative="1" as="geometry">
            <mxPoint x="230" y="610" as="targetPoint" />
          </mxGeometry>
        </mxCell>
        <mxCell id="KoexLx4D_cvT68o3L-97-120" value="" style="edgeStyle=none;curved=1;rounded=1;orthogonalLoop=1;jettySize=auto;html=1;fontSize=12;startSize=8;endSize=8;labelBackgroundColor=none;fontColor=default;fontFamily=Comic Sans MS;" edge="1" parent="1" source="KoexLx4D_cvT68o3L-97-118" target="KoexLx4D_cvT68o3L-97-119">
          <mxGeometry relative="1" as="geometry" />
        </mxCell>
        <mxCell id="KoexLx4D_cvT68o3L-97-118" value="" style="shape=waypoint;size=6;pointerEvents=1;points=[];fillColor=none;resizable=0;rotatable=0;perimeter=centerPerimeter;snapToPoint=1;labelBackgroundColor=none;rounded=1;fontFamily=Comic Sans MS;" vertex="1" parent="1">
          <mxGeometry x="330" y="750" width="20" height="20" as="geometry" />
        </mxCell>
        <mxCell id="KoexLx4D_cvT68o3L-97-121" value="" style="edgeStyle=none;curved=1;rounded=1;orthogonalLoop=1;jettySize=auto;html=1;fontSize=12;startSize=8;endSize=8;entryX=0.697;entryY=0.695;entryDx=0;entryDy=0;entryPerimeter=0;labelBackgroundColor=none;fontColor=default;fontFamily=Comic Sans MS;" edge="1" parent="1" source="KoexLx4D_cvT68o3L-97-119" target="KoexLx4D_cvT68o3L-97-43">
          <mxGeometry relative="1" as="geometry">
            <Array as="points" />
          </mxGeometry>
        </mxCell>
        <mxCell id="KoexLx4D_cvT68o3L-97-119" value="" style="shape=waypoint;size=6;pointerEvents=1;points=[];fillColor=none;resizable=0;rotatable=0;perimeter=centerPerimeter;snapToPoint=1;labelBackgroundColor=none;rounded=1;fontFamily=Comic Sans MS;" vertex="1" parent="1">
          <mxGeometry x="220" y="750" width="20" height="20" as="geometry" />
        </mxCell>
        <mxCell id="KoexLx4D_cvT68o3L-97-125" value="" style="edgeStyle=none;curved=1;rounded=1;orthogonalLoop=1;jettySize=auto;html=1;fontSize=12;startSize=8;endSize=8;labelBackgroundColor=none;fontColor=default;fontFamily=Comic Sans MS;" edge="1" parent="1" source="KoexLx4D_cvT68o3L-97-122" target="KoexLx4D_cvT68o3L-97-124">
          <mxGeometry relative="1" as="geometry" />
        </mxCell>
        <mxCell id="KoexLx4D_cvT68o3L-97-122" value="" style="shape=waypoint;size=6;pointerEvents=1;points=[];resizable=0;rotatable=0;perimeter=centerPerimeter;snapToPoint=1;labelBackgroundColor=none;rounded=1;fontFamily=Comic Sans MS;" vertex="1" parent="1">
          <mxGeometry x="100" y="640" width="20" height="20" as="geometry" />
        </mxCell>
        <mxCell id="KoexLx4D_cvT68o3L-97-126" value="" style="edgeStyle=none;curved=1;rounded=1;orthogonalLoop=1;jettySize=auto;html=1;fontSize=12;startSize=8;endSize=8;labelBackgroundColor=none;fontColor=default;fontFamily=Comic Sans MS;" edge="1" parent="1" source="KoexLx4D_cvT68o3L-97-124" target="KoexLx4D_cvT68o3L-97-119">
          <mxGeometry relative="1" as="geometry" />
        </mxCell>
        <mxCell id="KoexLx4D_cvT68o3L-97-124" value="" style="shape=waypoint;size=6;pointerEvents=1;points=[];resizable=0;rotatable=0;perimeter=centerPerimeter;snapToPoint=1;labelBackgroundColor=none;rounded=1;fontFamily=Comic Sans MS;" vertex="1" parent="1">
          <mxGeometry x="100" y="750" width="20" height="20" as="geometry" />
        </mxCell>
        <mxCell id="KoexLx4D_cvT68o3L-97-75" value="media = sum / 7" style="rounded=1;whiteSpace=wrap;html=1;labelBackgroundColor=none;fontFamily=Comic Sans MS;" vertex="1" parent="1">
          <mxGeometry x="80" y="320" width="120" height="60" as="geometry" />
        </mxCell>
        <mxCell id="KoexLx4D_cvT68o3L-97-133" value="" style="edgeStyle=none;curved=1;rounded=1;orthogonalLoop=1;jettySize=auto;html=1;fontSize=12;startSize=8;endSize=8;labelBackgroundColor=none;fontColor=default;fontFamily=Comic Sans MS;" edge="1" parent="1" source="KoexLx4D_cvT68o3L-97-131" target="KoexLx4D_cvT68o3L-97-75">
          <mxGeometry relative="1" as="geometry" />
        </mxCell>
        <mxCell id="KoexLx4D_cvT68o3L-97-131" value="" style="shape=waypoint;size=6;pointerEvents=1;points=[];resizable=0;rotatable=0;perimeter=centerPerimeter;snapToPoint=1;labelBackgroundColor=none;rounded=1;fontFamily=Comic Sans MS;" vertex="1" parent="1">
          <mxGeometry x="130" y="270" width="20" height="20" as="geometry" />
        </mxCell>
      </root>
    </mxGraphModel>
  </diagram>
</mxfile>
